<?xml version="1.0" encoding="UTF-8"?>
<svg width="64" height="36" viewBox="0 0 64 36" xmlns="http://www.w3.org/2000/svg" >

  <defs>
    <linearGradient id="bodyGrad" x1="0" y1="0" x2="0" y2="1">
      <stop offset="0%" stop-color="#ffffff" stop-opacity="0.18"/>
      <stop offset="100%" stop-color="#000000" stop-opacity="0.22"/>
    </linearGradient>
    <linearGradient id="leadGrad" x1="0" y1="0" x2="1" y2="0">
      <stop offset="0%" stop-color="#8a8a8a"/>
      <stop offset="50%" stop-color="#e0e0e0"/>
      <stop offset="100%" stop-color="#9a9a9a"/>
    </linearGradient>
    <filter id="softShadow" x="-20%" y="-20%" width="140%" height="140%">
      <feDropShadow dx="0" dy="1.2" stdDeviation="0.8" flood-color="#000" flood-opacity="0.28"/>
    </filter>
  </defs>

  <rect x="6" y="10" width="52" height="16" rx="1.4" fill="#dc2626" stroke="#7f1d1d" stroke-width="0.45" filter="url(#softShadow)"/>
  <rect x="6" y="10" width="52" height="16" rx="1.4" fill="url(#bodyGrad)" opacity="0.18"/>
<rect x="9.0" y="13" width="3.8" height="10" rx="0.5" fill="#f8fafc" stroke="#334155" stroke-width="0.35"/>
<rect x="9.6" y="14.2" width="2.6" height="3.2" rx="0.35" fill="#e2e8f0"/>
<text x="10.9" y="30" text-anchor="middle" font-family="monospace" font-size="1.55" fill="#475569">1</text>
<rect x="15.1" y="13" width="3.8" height="10" rx="0.5" fill="#f8fafc" stroke="#334155" stroke-width="0.35"/>
<rect x="15.7" y="14.2" width="2.6" height="3.2" rx="0.35" fill="#e2e8f0"/>
<text x="17.0" y="30" text-anchor="middle" font-family="monospace" font-size="1.55" fill="#475569">2</text>
<rect x="21.2" y="13" width="3.8" height="10" rx="0.5" fill="#f8fafc" stroke="#334155" stroke-width="0.35"/>
<rect x="21.8" y="14.2" width="2.6" height="3.2" rx="0.35" fill="#e2e8f0"/>
<text x="23.099999999999998" y="30" text-anchor="middle" font-family="monospace" font-size="1.55" fill="#475569">3</text>
<rect x="27.299999999999997" y="13" width="3.8" height="10" rx="0.5" fill="#f8fafc" stroke="#334155" stroke-width="0.35"/>
<rect x="27.9" y="14.2" width="2.6" height="3.2" rx="0.35" fill="#e2e8f0"/>
<text x="29.199999999999996" y="30" text-anchor="middle" font-family="monospace" font-size="1.55" fill="#475569">4</text>
<rect x="33.4" y="13" width="3.8" height="10" rx="0.5" fill="#f8fafc" stroke="#334155" stroke-width="0.35"/>
<rect x="34.0" y="14.2" width="2.6" height="3.2" rx="0.35" fill="#e2e8f0"/>
<text x="35.3" y="30" text-anchor="middle" font-family="monospace" font-size="1.55" fill="#475569">5</text>
<rect x="39.5" y="13" width="3.8" height="10" rx="0.5" fill="#f8fafc" stroke="#334155" stroke-width="0.35"/>
<rect x="40.1" y="14.2" width="2.6" height="3.2" rx="0.35" fill="#e2e8f0"/>
<text x="41.4" y="30" text-anchor="middle" font-family="monospace" font-size="1.55" fill="#475569">6</text>
<rect x="45.599999999999994" y="13" width="3.8" height="10" rx="0.5" fill="#f8fafc" stroke="#334155" stroke-width="0.35"/>
<rect x="46.199999999999996" y="14.2" width="2.6" height="3.2" rx="0.35" fill="#e2e8f0"/>
<text x="47.49999999999999" y="30" text-anchor="middle" font-family="monospace" font-size="1.55" fill="#475569">7</text>
<rect x="51.699999999999996" y="13" width="3.8" height="10" rx="0.5" fill="#f8fafc" stroke="#334155" stroke-width="0.35"/>
<rect x="52.3" y="14.2" width="2.6" height="3.2" rx="0.35" fill="#e2e8f0"/>
<text x="53.599999999999994" y="30" text-anchor="middle" font-family="monospace" font-size="1.55" fill="#475569">8</text>
<text x="32" y="8.5" text-anchor="middle" font-family="monospace" font-size="1.9" font-weight="700" fill="#1e293b">DIP-8  ON</text>
<rect x="9.8" y="26" width="1.8" height="5" rx="0.3" fill="#c8c8c8" stroke="#6b7280" stroke-width="0.28"/>
<rect x="9.8" y="6" width="1.8" height="4" rx="0.3" fill="#c8c8c8" stroke="#6b7280" stroke-width="0.28"/>
<rect x="15.9" y="26" width="1.8" height="5" rx="0.3" fill="#c8c8c8" stroke="#6b7280" stroke-width="0.28"/>
<rect x="15.9" y="6" width="1.8" height="4" rx="0.3" fill="#c8c8c8" stroke="#6b7280" stroke-width="0.28"/>
<rect x="22.0" y="26" width="1.8" height="5" rx="0.3" fill="#c8c8c8" stroke="#6b7280" stroke-width="0.28"/>
<rect x="22.0" y="6" width="1.8" height="4" rx="0.3" fill="#c8c8c8" stroke="#6b7280" stroke-width="0.28"/>
<rect x="28.099999999999998" y="26" width="1.8" height="5" rx="0.3" fill="#c8c8c8" stroke="#6b7280" stroke-width="0.28"/>
<rect x="28.099999999999998" y="6" width="1.8" height="4" rx="0.3" fill="#c8c8c8" stroke="#6b7280" stroke-width="0.28"/>
<rect x="34.2" y="26" width="1.8" height="5" rx="0.3" fill="#c8c8c8" stroke="#6b7280" stroke-width="0.28"/>
<rect x="34.2" y="6" width="1.8" height="4" rx="0.3" fill="#c8c8c8" stroke="#6b7280" stroke-width="0.28"/>
<rect x="40.3" y="26" width="1.8" height="5" rx="0.3" fill="#c8c8c8" stroke="#6b7280" stroke-width="0.28"/>
<rect x="40.3" y="6" width="1.8" height="4" rx="0.3" fill="#c8c8c8" stroke="#6b7280" stroke-width="0.28"/>
<rect x="46.39999999999999" y="26" width="1.8" height="5" rx="0.3" fill="#c8c8c8" stroke="#6b7280" stroke-width="0.28"/>
<rect x="46.39999999999999" y="6" width="1.8" height="4" rx="0.3" fill="#c8c8c8" stroke="#6b7280" stroke-width="0.28"/>
<rect x="52.5" y="26" width="1.8" height="5" rx="0.3" fill="#c8c8c8" stroke="#6b7280" stroke-width="0.28"/>
<rect x="52.5" y="6" width="1.8" height="4" rx="0.3" fill="#c8c8c8" stroke="#6b7280" stroke-width="0.28"/>
</svg>
