<?xml version="1.0" encoding="UTF-8"?>
<svg width="36" height="64" viewBox="0 0 36 64" xmlns="http://www.w3.org/2000/svg" >

  <defs>
    <linearGradient id="bodyGrad" x1="0" y1="0" x2="0" y2="1">
      <stop offset="0%" stop-color="#ffffff" stop-opacity="0.18"/>
      <stop offset="100%" stop-color="#000000" stop-opacity="0.22"/>
    </linearGradient>
    <linearGradient id="leadGrad" x1="0" y1="0" x2="1" y2="0">
      <stop offset="0%" stop-color="#8a8a8a"/>
      <stop offset="50%" stop-color="#e0e0e0"/>
      <stop offset="100%" stop-color="#9a9a9a"/>
    </linearGradient>
    <filter id="softShadow" x="-20%" y="-20%" width="140%" height="140%">
      <feDropShadow dx="0" dy="1.2" stdDeviation="0.8" flood-color="#000" flood-opacity="0.28"/>
    </filter>
  </defs>

  <rect x="6" y="4" width="24" height="56" rx="3" fill="#1f2937" stroke="#111827" stroke-width="0.5" filter="url(#softShadow)"/>
  <rect x="6" y="4" width="24" height="56" rx="3" fill="url(#bodyGrad)" opacity="0.2"/>
  <circle cx="18" cy="12" r="4.5" fill="#374151" stroke="#4b5563" stroke-width="0.35"/>
  <circle cx="18" cy="12" r="2.8" fill="#dc2626"/>
  <circle cx="18" cy="12" r="1.2" fill="#fca5a5"/>
<circle cx="12" cy="23" r="1.8" fill="#374151" stroke="#4b5563" stroke-width="0.25"/>
<circle cx="12" cy="23" r="0.7" fill="#9ca3af"/>
<circle cx="18" cy="23" r="1.8" fill="#374151" stroke="#4b5563" stroke-width="0.25"/>
<circle cx="18" cy="23" r="0.7" fill="#9ca3af"/>
<circle cx="24" cy="23" r="1.8" fill="#374151" stroke="#4b5563" stroke-width="0.25"/>
<circle cx="24" cy="23" r="0.7" fill="#9ca3af"/>
<circle cx="12" cy="31" r="1.8" fill="#374151" stroke="#4b5563" stroke-width="0.25"/>
<circle cx="12" cy="31" r="0.7" fill="#9ca3af"/>
<circle cx="18" cy="31" r="1.8" fill="#374151" stroke="#4b5563" stroke-width="0.25"/>
<circle cx="18" cy="31" r="0.7" fill="#9ca3af"/>
<circle cx="24" cy="31" r="1.8" fill="#374151" stroke="#4b5563" stroke-width="0.25"/>
<circle cx="24" cy="31" r="0.7" fill="#9ca3af"/>
<circle cx="12" cy="39" r="1.8" fill="#374151" stroke="#4b5563" stroke-width="0.25"/>
<circle cx="12" cy="39" r="0.7" fill="#9ca3af"/>
<circle cx="18" cy="39" r="1.8" fill="#374151" stroke="#4b5563" stroke-width="0.25"/>
<circle cx="18" cy="39" r="0.7" fill="#9ca3af"/>
<circle cx="24" cy="39" r="1.8" fill="#374151" stroke="#4b5563" stroke-width="0.25"/>
<circle cx="24" cy="39" r="0.7" fill="#9ca3af"/>
<circle cx="12" cy="47" r="1.8" fill="#374151" stroke="#4b5563" stroke-width="0.25"/>
<circle cx="12" cy="47" r="0.7" fill="#9ca3af"/>
<circle cx="18" cy="47" r="1.8" fill="#374151" stroke="#4b5563" stroke-width="0.25"/>
<circle cx="18" cy="47" r="0.7" fill="#9ca3af"/>
<circle cx="24" cy="47" r="1.8" fill="#374151" stroke="#4b5563" stroke-width="0.25"/>
<circle cx="24" cy="47" r="0.7" fill="#9ca3af"/>
<text x="18" y="58" text-anchor="middle" font-family="monospace" font-size="1.25" fill="#9ca3af">IR REMOTE</text>
</svg>
