<?xml version="1.0" encoding="UTF-8"?>
<svg width="78" height="44" viewBox="0 0 78 44" xmlns="http://www.w3.org/2000/svg" >

  <defs>
    <linearGradient id="bodyGrad" x1="0" y1="0" x2="0" y2="1">
      <stop offset="0%" stop-color="#ffffff" stop-opacity="0.18"/>
      <stop offset="100%" stop-color="#000000" stop-opacity="0.22"/>
    </linearGradient>
    <linearGradient id="leadGrad" x1="0" y1="0" x2="1" y2="0">
      <stop offset="0%" stop-color="#8a8a8a"/>
      <stop offset="50%" stop-color="#e0e0e0"/>
      <stop offset="100%" stop-color="#9a9a9a"/>
    </linearGradient>
    <filter id="softShadow" x="-20%" y="-20%" width="140%" height="140%">
      <feDropShadow dx="0" dy="1.2" stdDeviation="0.8" flood-color="#000" flood-opacity="0.28"/>
    </filter>
  </defs>
<rect x="2" y="4" width="74" height="36" rx="1.6" fill="#0f172a" stroke="#1e293b" stroke-width="0.6" filter="url(#softShadow)"/>
<rect x="4" y="6" width="70" height="32" rx="1" fill="#0c4a10"/>
<rect x="7" y="11" width="64" height="18" rx="0.8" fill="#1a2e0a" stroke="#000" stroke-width="0.3"/>
<rect x="8.5" y="12.5" width="61" height="15" rx="0.5" fill="#84cc16"/>
<text x="39" y="18.5" text-anchor="middle" font-family="monospace" font-size="3" font-weight="700" fill="#0f1f00">Hello World!</text>
<text x="39" y="23.8" text-anchor="middle" font-family="monospace" font-size="2.4" fill="#0f1f00">Schematic</text>
<circle cx="68" cy="32" r="2.3" fill="#60a5fa" stroke="#1e40af" stroke-width="0.35"/>
<circle cx="68" cy="32" r="0.7" fill="#fff"/>
<rect x="8" y="33.5" width="36" height="3.2" rx="0.4" fill="#1e293b"/>
<rect x="9.0" y="34" width="1" height="2.2" rx="0.2" fill="#facc15"/>
<rect x="11.1" y="34" width="1" height="2.2" rx="0.2" fill="#facc15"/>
<rect x="13.2" y="34" width="1" height="2.2" rx="0.2" fill="#facc15"/>
<rect x="15.3" y="34" width="1" height="2.2" rx="0.2" fill="#facc15"/>
<rect x="17.4" y="34" width="1" height="2.2" rx="0.2" fill="#facc15"/>
<rect x="19.5" y="34" width="1" height="2.2" rx="0.2" fill="#facc15"/>
<rect x="21.6" y="34" width="1" height="2.2" rx="0.2" fill="#facc15"/>
<rect x="23.700000000000003" y="34" width="1" height="2.2" rx="0.2" fill="#facc15"/>
<rect x="25.8" y="34" width="1" height="2.2" rx="0.2" fill="#facc15"/>
<rect x="27.900000000000002" y="34" width="1" height="2.2" rx="0.2" fill="#facc15"/>
<rect x="30.0" y="34" width="1" height="2.2" rx="0.2" fill="#facc15"/>
<rect x="32.1" y="34" width="1" height="2.2" rx="0.2" fill="#facc15"/>
<rect x="34.2" y="34" width="1" height="2.2" rx="0.2" fill="#facc15"/>
<rect x="36.3" y="34" width="1" height="2.2" rx="0.2" fill="#facc15"/>
<rect x="38.400000000000006" y="34" width="1" height="2.2" rx="0.2" fill="#facc15"/>
<rect x="40.5" y="34" width="1" height="2.2" rx="0.2" fill="#facc15"/>
</svg>
