<?xml version="1.0" encoding="UTF-8"?>
<svg width="64" height="48" viewBox="0 0 64 48" xmlns="http://www.w3.org/2000/svg" >

  <defs>
    <linearGradient id="bodyGrad" x1="0" y1="0" x2="0" y2="1">
      <stop offset="0%" stop-color="#ffffff" stop-opacity="0.18"/>
      <stop offset="100%" stop-color="#000000" stop-opacity="0.22"/>
    </linearGradient>
    <linearGradient id="leadGrad" x1="0" y1="0" x2="1" y2="0">
      <stop offset="0%" stop-color="#8a8a8a"/>
      <stop offset="50%" stop-color="#e0e0e0"/>
      <stop offset="100%" stop-color="#9a9a9a"/>
    </linearGradient>
    <filter id="softShadow" x="-20%" y="-20%" width="140%" height="140%">
      <feDropShadow dx="0" dy="1.2" stdDeviation="0.8" flood-color="#000" flood-opacity="0.28"/>
    </filter>
  </defs>

  <rect x="6" y="6" width="52" height="36" rx="1.6" fill="#1f2937" stroke="#111827" stroke-width="0.5" filter="url(#softShadow)"/>
  <rect x="6" y="6" width="52" height="36" rx="1.6" fill="url(#bodyGrad)" opacity="0.18"/>
<rect x="11" y="9.0" width="10" height="6.5" rx="0.6" fill="#f8fafc" stroke="#cbd5e1" stroke-width="0.35"/>
<text x="16" y="13.2" text-anchor="middle" font-family="monospace" font-size="2.4" font-weight="700" fill="#0f172a">1</text>
<rect x="23" y="9.0" width="10" height="6.5" rx="0.6" fill="#f8fafc" stroke="#cbd5e1" stroke-width="0.35"/>
<text x="28" y="13.2" text-anchor="middle" font-family="monospace" font-size="2.4" font-weight="700" fill="#0f172a">2</text>
<rect x="35" y="9.0" width="10" height="6.5" rx="0.6" fill="#f8fafc" stroke="#cbd5e1" stroke-width="0.35"/>
<text x="40" y="13.2" text-anchor="middle" font-family="monospace" font-size="2.4" font-weight="700" fill="#0f172a">3</text>
<rect x="47" y="9.0" width="10" height="6.5" rx="0.6" fill="#f8fafc" stroke="#cbd5e1" stroke-width="0.35"/>
<text x="52" y="13.2" text-anchor="middle" font-family="monospace" font-size="2.4" font-weight="700" fill="#0f172a">A</text>
<rect x="11" y="17.2" width="10" height="6.5" rx="0.6" fill="#f8fafc" stroke="#cbd5e1" stroke-width="0.35"/>
<text x="16" y="21.4" text-anchor="middle" font-family="monospace" font-size="2.4" font-weight="700" fill="#0f172a">4</text>
<rect x="23" y="17.2" width="10" height="6.5" rx="0.6" fill="#f8fafc" stroke="#cbd5e1" stroke-width="0.35"/>
<text x="28" y="21.4" text-anchor="middle" font-family="monospace" font-size="2.4" font-weight="700" fill="#0f172a">5</text>
<rect x="35" y="17.2" width="10" height="6.5" rx="0.6" fill="#f8fafc" stroke="#cbd5e1" stroke-width="0.35"/>
<text x="40" y="21.4" text-anchor="middle" font-family="monospace" font-size="2.4" font-weight="700" fill="#0f172a">6</text>
<rect x="47" y="17.2" width="10" height="6.5" rx="0.6" fill="#f8fafc" stroke="#cbd5e1" stroke-width="0.35"/>
<text x="52" y="21.4" text-anchor="middle" font-family="monospace" font-size="2.4" font-weight="700" fill="#0f172a">B</text>
<rect x="11" y="25.4" width="10" height="6.5" rx="0.6" fill="#f8fafc" stroke="#cbd5e1" stroke-width="0.35"/>
<text x="16" y="29.599999999999998" text-anchor="middle" font-family="monospace" font-size="2.4" font-weight="700" fill="#0f172a">7</text>
<rect x="23" y="25.4" width="10" height="6.5" rx="0.6" fill="#f8fafc" stroke="#cbd5e1" stroke-width="0.35"/>
<text x="28" y="29.599999999999998" text-anchor="middle" font-family="monospace" font-size="2.4" font-weight="700" fill="#0f172a">8</text>
<rect x="35" y="25.4" width="10" height="6.5" rx="0.6" fill="#f8fafc" stroke="#cbd5e1" stroke-width="0.35"/>
<text x="40" y="29.599999999999998" text-anchor="middle" font-family="monospace" font-size="2.4" font-weight="700" fill="#0f172a">9</text>
<rect x="47" y="25.4" width="10" height="6.5" rx="0.6" fill="#f8fafc" stroke="#cbd5e1" stroke-width="0.35"/>
<text x="52" y="29.599999999999998" text-anchor="middle" font-family="monospace" font-size="2.4" font-weight="700" fill="#0f172a">C</text>
<rect x="11" y="33.599999999999994" width="10" height="6.5" rx="0.6" fill="#f8fafc" stroke="#cbd5e1" stroke-width="0.35"/>
<text x="16" y="37.8" text-anchor="middle" font-family="monospace" font-size="2.4" font-weight="700" fill="#0f172a">*</text>
<rect x="23" y="33.599999999999994" width="10" height="6.5" rx="0.6" fill="#f8fafc" stroke="#cbd5e1" stroke-width="0.35"/>
<text x="28" y="37.8" text-anchor="middle" font-family="monospace" font-size="2.4" font-weight="700" fill="#0f172a">0</text>
<rect x="35" y="33.599999999999994" width="10" height="6.5" rx="0.6" fill="#f8fafc" stroke="#cbd5e1" stroke-width="0.35"/>
<text x="40" y="37.8" text-anchor="middle" font-family="monospace" font-size="2.4" font-weight="700" fill="#0f172a">#</text>
<rect x="47" y="33.599999999999994" width="10" height="6.5" rx="0.6" fill="#f8fafc" stroke="#cbd5e1" stroke-width="0.35"/>
<text x="52" y="37.8" text-anchor="middle" font-family="monospace" font-size="2.4" font-weight="700" fill="#0f172a">D</text>
<rect x="20" y="42" width="24" height="2.5" rx="0.6" fill="#facc15"/>
<rect x="21.0" y="42.7" width="1.2" height="1.1" rx="0.2" fill="#92400e"/>
<rect x="23.7" y="42.7" width="1.2" height="1.1" rx="0.2" fill="#92400e"/>
<rect x="26.4" y="42.7" width="1.2" height="1.1" rx="0.2" fill="#92400e"/>
<rect x="29.1" y="42.7" width="1.2" height="1.1" rx="0.2" fill="#92400e"/>
<rect x="31.8" y="42.7" width="1.2" height="1.1" rx="0.2" fill="#92400e"/>
<rect x="34.5" y="42.7" width="1.2" height="1.1" rx="0.2" fill="#92400e"/>
<rect x="37.2" y="42.7" width="1.2" height="1.1" rx="0.2" fill="#92400e"/>
<rect x="39.900000000000006" y="42.7" width="1.2" height="1.1" rx="0.2" fill="#92400e"/>
</svg>
