<?xml version="1.0" encoding="UTF-8"?>
<svg width="64" height="40" viewBox="0 0 64 40" xmlns="http://www.w3.org/2000/svg" >

  <defs>
    <linearGradient id="bodyGrad" x1="0" y1="0" x2="0" y2="1">
      <stop offset="0%" stop-color="#ffffff" stop-opacity="0.18"/>
      <stop offset="100%" stop-color="#000000" stop-opacity="0.22"/>
    </linearGradient>
    <linearGradient id="leadGrad" x1="0" y1="0" x2="1" y2="0">
      <stop offset="0%" stop-color="#8a8a8a"/>
      <stop offset="50%" stop-color="#e0e0e0"/>
      <stop offset="100%" stop-color="#9a9a9a"/>
    </linearGradient>
    <filter id="softShadow" x="-20%" y="-20%" width="140%" height="140%">
      <feDropShadow dx="0" dy="1.2" stdDeviation="0.8" flood-color="#000" flood-opacity="0.28"/>
    </filter>
  </defs>

  <rect x="4" y="6" width="56" height="28" rx="2.2" fill="#0f172a" stroke="#1e293b" stroke-width="0.6" filter="url(#softShadow)"/>
  <rect x="6" y="8" width="52" height="24" rx="1.4" fill="#1e293b"/>
  <!-- display -->
  <rect x="8" y="10" width="32" height="16" rx="1" fill="#000"/>
  <rect x="9" y="11" width="30" height="14" rx="0.6" fill="#0c4a6e"/>
  <text x="24" y="17.5" text-anchor="middle" font-family="monospace" font-size="3.8" font-weight="700" fill="#22d3ee">5.00V</text>
  <text x="24" y="22.2" text-anchor="middle" font-family="monospace" font-size="2.4" font-weight="600" fill="#facc15">1.00A</text>
  <!-- knobs -->
  <circle cx="48" cy="15" r="3.2" fill="#334155" stroke="#475569" stroke-width="0.35"/>
  <circle cx="48" cy="15" r="1" fill="#e2e8f0"/>
  <rect x="47.6" y="11" width="0.8" height="1.8" rx="0.3" fill="#f1f5f9"/>
  <circle cx="48" cy="24" r="3.2" fill="#334155" stroke="#475569" stroke-width="0.35"/>
  <circle cx="48" cy="24" r="1" fill="#e2e8f0"/>
  <rect x="47.6" y="20" width="0.8" height="1.8" rx="0.3" fill="#f1f5f9" transform="rotate(45 48 24)"/>
  <!-- terminals -->
  <circle cx="14" cy="32.5" r="2.2" fill="#dc2626" stroke="#7f1d1d" stroke-width="0.35"/>
  <circle cx="14" cy="32.5" r="0.7" fill="#fca5a5"/>
  <circle cx="22" cy="32.5" r="2.2" fill="#111" stroke="#374151" stroke-width="0.35"/>
  <circle cx="30" cy="32.5" r="2.2" fill="#dc2626" stroke="#7f1d1d" stroke-width="0.35"/>
  <text x="14" y="38" text-anchor="middle" font-family="monospace" font-size="1.3" fill="#e2e8f0">V+</text>
  <text x="22" y="38" text-anchor="middle" font-family="monospace" font-size="1.3" fill="#e2e8f0">GND</text>
  <text x="30" y="38" text-anchor="middle" font-family="monospace" font-size="1.3" fill="#e2e8f0">V−</text>
</svg>
