<?xml version="1.0" encoding="UTF-8"?>
<svg width="64" height="42" viewBox="0 0 64 42" xmlns="http://www.w3.org/2000/svg" >

  <defs>
    <linearGradient id="bodyGrad" x1="0" y1="0" x2="0" y2="1">
      <stop offset="0%" stop-color="#ffffff" stop-opacity="0.18"/>
      <stop offset="100%" stop-color="#000000" stop-opacity="0.22"/>
    </linearGradient>
    <linearGradient id="leadGrad" x1="0" y1="0" x2="1" y2="0">
      <stop offset="0%" stop-color="#8a8a8a"/>
      <stop offset="50%" stop-color="#e0e0e0"/>
      <stop offset="100%" stop-color="#9a9a9a"/>
    </linearGradient>
    <filter id="softShadow" x="-20%" y="-20%" width="140%" height="140%">
      <feDropShadow dx="0" dy="1.2" stdDeviation="0.8" flood-color="#000" flood-opacity="0.28"/>
    </filter>
  </defs>

  <rect x="4" y="4" width="56" height="32" rx="1.4" fill="#025CAF" stroke="#0c4a6e" stroke-width="0.5" filter="url(#softShadow)"/>
  <rect x="6" y="6" width="52" height="24" rx="0.6" fill="#111827"/>
  <rect x="8" y="10" width="48" height="16" rx="0.4" fill="#000"/>
  <text x="32" y="17" text-anchor="middle" font-family="monospace" font-size="2.2" fill="#22d3ee">SSD1306 0.96"</text>
  <text x="32" y="21.5" text-anchor="middle" font-family="monospace" font-size="1.55" fill="#e5e7eb">128×64 OLED</text>
  <rect x="10" y="30" width="20" height="2.5" rx="0.4" fill="#1e293b"/>
  <rect x="12" y="31" width="2" height="1" rx="0.2" fill="#facc15"/><rect x="16" y="31" width="2" height="1" rx="0.2" fill="#facc15"/><rect x="20" y="31" width="2" height="1" rx="0.2" fill="#facc15"/><rect x="24" y="31" width="2" height="1" rx="0.2" fill="#facc15"/>
  <text x="32" y="38" text-anchor="middle" font-family="monospace" font-size="1.25" fill="#475569">4-PIN I2C</text>
</svg>
